<mxfile modified="2022-09-28T18:18:25.066Z" host="app.diagrams.net" agent="5.0 (Windows NT 10.0; Win64; x64) AppleWebKit/537.36 (KHTML, like Gecko) Chrome/105.0.0.0 Safari/537.36" etag="jRTCPFOW4Yona9yv445t" version="20.3.7" type="github">
  <diagram id="Ht1M8jgEwFfnCIfOTk4-" name="Page-1">
    <mxGraphModel dx="2062" dy="1065" grid="1" gridSize="10" guides="1" tooltips="1" connect="1" arrows="1" fold="1" page="1" pageScale="1" pageWidth="1169" pageHeight="827" math="0" shadow="0">
      <root>
        <mxCell id="0" />
        <mxCell id="1" parent="0" />
        <mxCell id="Gq2ocJzow4UtyP_4--Kb-11" value="Feds primerose VPC" style="points=[[0,0],[0.25,0],[0.5,0],[0.75,0],[1,0],[1,0.25],[1,0.5],[1,0.75],[1,1],[0.75,1],[0.5,1],[0.25,1],[0,1],[0,0.75],[0,0.5],[0,0.25]];outlineConnect=0;gradientColor=none;html=1;whiteSpace=wrap;fontSize=12;fontStyle=0;container=0;pointerEvents=0;collapsible=0;recursiveResize=0;shape=mxgraph.aws4.group;grIcon=mxgraph.aws4.group_vpc;strokeColor=#248814;fillColor=none;verticalAlign=top;align=left;spacingLeft=30;fontColor=#AAB7B8;dashed=0;" parent="1" vertex="1">
          <mxGeometry x="40" y="180" width="510" height="420" as="geometry" />
        </mxCell>
        <mxCell id="Gq2ocJzow4UtyP_4--Kb-7" value="e" style="group" parent="1" vertex="1" connectable="0">
          <mxGeometry x="770" y="280" width="310" height="350" as="geometry" />
        </mxCell>
        <mxCell id="Gq2ocJzow4UtyP_4--Kb-8" value="RADAR-GPROD-VPC" style="points=[[0,0],[0.25,0],[0.5,0],[0.75,0],[1,0],[1,0.25],[1,0.5],[1,0.75],[1,1],[0.75,1],[0.5,1],[0.25,1],[0,1],[0,0.75],[0,0.5],[0,0.25]];outlineConnect=0;gradientColor=none;html=1;whiteSpace=wrap;fontSize=12;fontStyle=0;container=1;pointerEvents=0;collapsible=0;recursiveResize=0;shape=mxgraph.aws4.group;grIcon=mxgraph.aws4.group_vpc;strokeColor=#248814;fillColor=none;verticalAlign=top;align=left;spacingLeft=30;fontColor=#AAB7B8;dashed=0;" parent="Gq2ocJzow4UtyP_4--Kb-7" vertex="1">
          <mxGeometry x="-70" y="-90" width="330" height="420" as="geometry" />
        </mxCell>
        <mxCell id="Fl2V9q7zLhbFqs8fmjkG-21" value="Public subnet" style="points=[[0,0],[0.25,0],[0.5,0],[0.75,0],[1,0],[1,0.25],[1,0.5],[1,0.75],[1,1],[0.75,1],[0.5,1],[0.25,1],[0,1],[0,0.75],[0,0.5],[0,0.25]];outlineConnect=0;gradientColor=none;html=1;whiteSpace=wrap;fontSize=12;fontStyle=0;container=1;pointerEvents=0;collapsible=0;recursiveResize=0;shape=mxgraph.aws4.group;grIcon=mxgraph.aws4.group_security_group;grStroke=0;strokeColor=#248814;fillColor=#E9F3E6;verticalAlign=top;align=left;spacingLeft=30;fontColor=#248814;dashed=0;" parent="Gq2ocJzow4UtyP_4--Kb-8" vertex="1">
          <mxGeometry x="80" y="60" width="200" height="150" as="geometry" />
        </mxCell>
        <mxCell id="Gq2ocJzow4UtyP_4--Kb-4" value="Security Group" style="rounded=1;arcSize=10;dashed=1;strokeColor=#ff0000;fillColor=none;gradientColor=none;dashPattern=8 4;strokeWidth=2;verticalAlign=top;" parent="Fl2V9q7zLhbFqs8fmjkG-21" vertex="1">
          <mxGeometry x="24.55" y="30" width="115.45" height="80" as="geometry" />
        </mxCell>
        <mxCell id="Gq2ocJzow4UtyP_4--Kb-10" value="NACL&lt;br&gt;" style="sketch=0;outlineConnect=0;fontColor=#232F3E;gradientColor=none;fillColor=#4D27AA;strokeColor=none;dashed=0;verticalLabelPosition=bottom;verticalAlign=top;align=center;html=1;fontSize=12;fontStyle=0;aspect=fixed;pointerEvents=1;shape=mxgraph.aws4.network_access_control_list;" parent="Gq2ocJzow4UtyP_4--Kb-8" vertex="1">
          <mxGeometry y="161.82" width="28.18" height="28.18" as="geometry" />
        </mxCell>
        <mxCell id="Fl2V9q7zLhbFqs8fmjkG-22" value="Private subnet" style="points=[[0,0],[0.25,0],[0.5,0],[0.75,0],[1,0],[1,0.25],[1,0.5],[1,0.75],[1,1],[0.75,1],[0.5,1],[0.25,1],[0,1],[0,0.75],[0,0.5],[0,0.25]];outlineConnect=0;gradientColor=none;html=1;whiteSpace=wrap;fontSize=12;fontStyle=0;container=1;pointerEvents=0;collapsible=0;recursiveResize=0;shape=mxgraph.aws4.group;grIcon=mxgraph.aws4.group_security_group;grStroke=0;strokeColor=#147EBA;fillColor=#E6F2F8;verticalAlign=top;align=left;spacingLeft=30;fontColor=#147EBA;dashed=0;" parent="Gq2ocJzow4UtyP_4--Kb-8" vertex="1">
          <mxGeometry x="74.54" y="210" width="220.91" height="150" as="geometry" />
        </mxCell>
        <mxCell id="Gq2ocJzow4UtyP_4--Kb-6" value="Availability zone" style="sketch=0;outlineConnect=0;gradientColor=none;html=1;whiteSpace=wrap;fontSize=12;fontStyle=0;shape=mxgraph.aws4.group;grIcon=mxgraph.aws4.group_availability_zone;strokeColor=#545B64;fillColor=none;verticalAlign=top;align=left;spacingLeft=30;fontColor=#545B64;dashed=1;" parent="Gq2ocJzow4UtyP_4--Kb-8" vertex="1">
          <mxGeometry x="20" y="20" width="290" height="340" as="geometry" />
        </mxCell>
        <mxCell id="Z9EeVZcDygBWmFybQmbX-5" value="" style="rounded=0;whiteSpace=wrap;html=1;" parent="Gq2ocJzow4UtyP_4--Kb-7" vertex="1">
          <mxGeometry x="30" y="150" width="170" height="95" as="geometry" />
        </mxCell>
        <mxCell id="o_UAqSozi1PxJaAxTeL0-5" value="" style="endArrow=classic;html=1;rounded=0;" parent="Gq2ocJzow4UtyP_4--Kb-7" source="Gq2ocJzow4UtyP_4--Kb-10" target="Z9EeVZcDygBWmFybQmbX-5" edge="1">
          <mxGeometry width="50" height="50" relative="1" as="geometry">
            <mxPoint x="250" y="340" as="sourcePoint" />
            <mxPoint x="88.17936274658359" y="159.54999999999995" as="targetPoint" />
            <Array as="points">
              <mxPoint x="115" y="40" />
            </Array>
          </mxGeometry>
        </mxCell>
        <mxCell id="Z9EeVZcDygBWmFybQmbX-1" value="EKS Dev&lt;br&gt;Cluster&lt;br&gt;" style="sketch=0;points=[[0,0,0],[0.25,0,0],[0.5,0,0],[0.75,0,0],[1,0,0],[0,1,0],[0.25,1,0],[0.5,1,0],[0.75,1,0],[1,1,0],[0,0.25,0],[0,0.5,0],[0,0.75,0],[1,0.25,0],[1,0.5,0],[1,0.75,0]];outlineConnect=0;fontColor=#232F3E;gradientColor=#F78E04;gradientDirection=north;fillColor=#D05C17;strokeColor=#ffffff;dashed=0;verticalLabelPosition=bottom;verticalAlign=top;align=center;html=1;fontSize=12;fontStyle=0;aspect=fixed;shape=mxgraph.aws4.resourceIcon;resIcon=mxgraph.aws4.eks_cloud;" parent="Gq2ocJzow4UtyP_4--Kb-7" vertex="1">
          <mxGeometry x="40" y="160" width="50" height="50" as="geometry" />
        </mxCell>
        <mxCell id="Z9EeVZcDygBWmFybQmbX-2" value="Istio" style="sketch=0;points=[[0,0,0],[0.25,0,0],[0.5,0,0],[0.75,0,0],[1,0,0],[0,1,0],[0.25,1,0],[0.5,1,0],[0.75,1,0],[1,1,0],[0,0.25,0],[0,0.5,0],[0,0.75,0],[1,0.25,0],[1,0.5,0],[1,0.75,0]];outlineConnect=0;fontColor=#232F3E;gradientColor=#F78E04;gradientDirection=north;fillColor=#D05C17;strokeColor=#ffffff;dashed=0;verticalLabelPosition=bottom;verticalAlign=top;align=center;html=1;fontSize=12;fontStyle=0;aspect=fixed;shape=mxgraph.aws4.resourceIcon;resIcon=mxgraph.aws4.eks;" parent="Gq2ocJzow4UtyP_4--Kb-7" vertex="1">
          <mxGeometry x="120" y="160" width="50" height="50" as="geometry" />
        </mxCell>
        <mxCell id="o_UAqSozi1PxJaAxTeL0-4" value="" style="endArrow=classic;startArrow=classic;html=1;rounded=0;" parent="1" source="Fl2V9q7zLhbFqs8fmjkG-20" target="Gq2ocJzow4UtyP_4--Kb-10" edge="1">
          <mxGeometry width="50" height="50" relative="1" as="geometry">
            <mxPoint x="1060" y="580" as="sourcePoint" />
            <mxPoint x="1110" y="530" as="targetPoint" />
          </mxGeometry>
        </mxCell>
        <mxCell id="Fl2V9q7zLhbFqs8fmjkG-1" value="Availability zone" style="sketch=0;outlineConnect=0;gradientColor=none;html=1;whiteSpace=wrap;fontSize=12;fontStyle=0;shape=mxgraph.aws4.group;grIcon=mxgraph.aws4.group_availability_zone;strokeColor=#545B64;fillColor=none;verticalAlign=top;align=left;spacingLeft=30;fontColor=#545B64;dashed=1;" parent="1" vertex="1">
          <mxGeometry x="60" y="210" width="470" height="330" as="geometry" />
        </mxCell>
        <mxCell id="Fl2V9q7zLhbFqs8fmjkG-20" value="NACL&lt;br&gt;" style="sketch=0;outlineConnect=0;fontColor=#232F3E;gradientColor=none;fillColor=#4D27AA;strokeColor=none;dashed=0;verticalLabelPosition=bottom;verticalAlign=top;align=center;html=1;fontSize=12;fontStyle=0;aspect=fixed;pointerEvents=1;shape=mxgraph.aws4.network_access_control_list;" parent="1" vertex="1">
          <mxGeometry x="530" y="425" width="30" height="30" as="geometry" />
        </mxCell>
        <mxCell id="xNrRtaE7JTzdFGIeobkO-1" value="" style="endArrow=none;html=1;rounded=0;exitX=1;exitY=0.5;exitDx=0;exitDy=0;" edge="1" parent="1" source="Fl2V9q7zLhbFqs8fmjkG-15" target="Fl2V9q7zLhbFqs8fmjkG-20">
          <mxGeometry width="50" height="50" relative="1" as="geometry">
            <mxPoint x="560" y="570" as="sourcePoint" />
            <mxPoint x="610" y="520" as="targetPoint" />
          </mxGeometry>
        </mxCell>
        <mxCell id="Gq2ocJzow4UtyP_4--Kb-2" value="Gitlab" style="shape=image;html=1;verticalAlign=top;verticalLabelPosition=bottom;labelBackgroundColor=#ffffff;imageAspect=0;aspect=fixed;image=https://cdn4.iconfinder.com/data/icons/socialcones/508/Gitlab-128.png" parent="1" vertex="1">
          <mxGeometry x="120" y="270" width="50" height="50" as="geometry" />
        </mxCell>
        <mxCell id="Fl2V9q7zLhbFqs8fmjkG-2" value="" style="endArrow=classic;html=1;rounded=0;exitX=-0.062;exitY=0.468;exitDx=0;exitDy=0;exitPerimeter=0;" parent="1" source="LXsiCXKtM6dPdB3KYGL0-5" target="Gq2ocJzow4UtyP_4--Kb-2" edge="1">
          <mxGeometry width="50" height="50" relative="1" as="geometry">
            <mxPoint x="269.04761904761904" y="835.3488372093022" as="sourcePoint" />
            <mxPoint x="380.95238095238096" y="760.9302325581396" as="targetPoint" />
          </mxGeometry>
        </mxCell>
        <mxCell id="Fl2V9q7zLhbFqs8fmjkG-16" value="" style="endArrow=none;dashed=1;html=1;dashPattern=1 3;strokeWidth=2;rounded=0;exitX=0.5;exitY=0;exitDx=0;exitDy=0;" parent="1" source="Fl2V9q7zLhbFqs8fmjkG-15" target="Gq2ocJzow4UtyP_4--Kb-2" edge="1">
          <mxGeometry width="50" height="50" relative="1" as="geometry">
            <mxPoint x="635" y="500" as="sourcePoint" />
            <mxPoint x="685" y="450" as="targetPoint" />
          </mxGeometry>
        </mxCell>
        <mxCell id="Fl2V9q7zLhbFqs8fmjkG-3" value="" style="endArrow=classic;html=1;rounded=0;exitX=0;exitY=0.675;exitDx=0;exitDy=0;exitPerimeter=0;" parent="1" source="LXsiCXKtM6dPdB3KYGL0-8" edge="1">
          <mxGeometry width="50" height="50" relative="1" as="geometry">
            <mxPoint x="261.66666666666663" y="508.3706976744186" as="sourcePoint" />
            <mxPoint x="180" y="300" as="targetPoint" />
          </mxGeometry>
        </mxCell>
        <mxCell id="xNrRtaE7JTzdFGIeobkO-3" value="" style="group" vertex="1" connectable="0" parent="1">
          <mxGeometry x="299.9995238095238" y="310" width="100" height="89.99860465116274" as="geometry" />
        </mxCell>
        <mxCell id="LXsiCXKtM6dPdB3KYGL0-8" value="" style="sketch=0;html=1;aspect=fixed;strokeColor=none;shadow=0;align=center;verticalAlign=top;fillColor=#3B8DF1;shape=mxgraph.gcp2.repository_primary" parent="xNrRtaE7JTzdFGIeobkO-3" vertex="1">
          <mxGeometry x="20.000476190476206" width="50" height="50" as="geometry" />
        </mxCell>
        <mxCell id="LXsiCXKtM6dPdB3KYGL0-18" value="Ucato-Radar-&lt;br&gt;k8s-temnplate" style="text;html=1;align=center;verticalAlign=middle;resizable=0;points=[];autosize=1;strokeColor=none;fillColor=none;" parent="xNrRtaE7JTzdFGIeobkO-3" vertex="1">
          <mxGeometry y="49.998604651162736" width="100" height="40" as="geometry" />
        </mxCell>
        <mxCell id="xNrRtaE7JTzdFGIeobkO-4" value="" style="group" vertex="1" connectable="0" parent="1">
          <mxGeometry x="299.05319260445486" y="230" width="110" height="84.996164678225" as="geometry" />
        </mxCell>
        <mxCell id="xNrRtaE7JTzdFGIeobkO-2" value="" style="group" vertex="1" connectable="0" parent="xNrRtaE7JTzdFGIeobkO-4">
          <mxGeometry width="110" height="84.996164678225" as="geometry" />
        </mxCell>
        <mxCell id="LXsiCXKtM6dPdB3KYGL0-19" value="Microservice &lt;br&gt;Risk Assessment" style="text;html=1;align=center;verticalAlign=middle;resizable=0;points=[];autosize=1;strokeColor=none;fillColor=none;" parent="xNrRtaE7JTzdFGIeobkO-2" vertex="1">
          <mxGeometry y="44.996164678225" width="110" height="40" as="geometry" />
        </mxCell>
        <mxCell id="LXsiCXKtM6dPdB3KYGL0-5" value="" style="sketch=0;html=1;aspect=fixed;strokeColor=none;shadow=0;align=center;verticalAlign=top;fillColor=#3B8DF1;shape=mxgraph.gcp2.repository_primary" parent="xNrRtaE7JTzdFGIeobkO-4" vertex="1">
          <mxGeometry x="30.946807395545193" width="48.11" height="48.11" as="geometry" />
        </mxCell>
        <mxCell id="xNrRtaE7JTzdFGIeobkO-5" value="" style="group" vertex="1" connectable="0" parent="1">
          <mxGeometry x="93.89" y="400" width="102.20999999999998" height="80" as="geometry" />
        </mxCell>
        <mxCell id="Fl2V9q7zLhbFqs8fmjkG-15" value="" style="rounded=0;whiteSpace=wrap;html=1;" parent="xNrRtaE7JTzdFGIeobkO-5" vertex="1">
          <mxGeometry width="102.21" height="80" as="geometry" />
        </mxCell>
        <mxCell id="Fl2V9q7zLhbFqs8fmjkG-6" value="Runner deployment" style="sketch=0;points=[[0,0,0],[0.25,0,0],[0.5,0,0],[0.75,0,0],[1,0,0],[0,1,0],[0.25,1,0],[0.5,1,0],[0.75,1,0],[1,1,0],[0,0.25,0],[0,0.5,0],[0,0.75,0],[1,0.25,0],[1,0.5,0],[1,0.75,0]];points=[[0,0,0],[0.25,0,0],[0.5,0,0],[0.75,0,0],[1,0,0],[0,1,0],[0.25,1,0],[0.5,1,0],[0.75,1,0],[1,1,0],[0,0.25,0],[0,0.5,0],[0,0.75,0],[1,0.25,0],[1,0.5,0],[1,0.75,0]];outlineConnect=0;fontColor=#232F3E;gradientColor=#F34482;gradientDirection=north;fillColor=#BC1356;strokeColor=#ffffff;dashed=0;verticalLabelPosition=bottom;verticalAlign=top;align=center;html=1;fontSize=12;fontStyle=0;aspect=fixed;shape=mxgraph.aws4.resourceIcon;resIcon=mxgraph.aws4.cloudformation;" parent="xNrRtaE7JTzdFGIeobkO-5" vertex="1">
          <mxGeometry x="30.00077400883194" y="4.060557613032245" width="41.95666521085067" height="41.95666521085067" as="geometry" />
        </mxCell>
      </root>
    </mxGraphModel>
  </diagram>
</mxfile>
